@startuml
'https://plantuml.com/class-diagram

hide circle
skinparam classAttributeIconSize 0
!define ABSTRACT &#123;abstract&#125;

abstract "{abstract} \n Command" {
+ execute() : void \t\t ABSTRACT
+ isExit() : boolean
}
class ClearCommand {
+ execute() : void
}
class CloseCommand {
+ execute() : void
}
class DefaultCommand {
# input : String
+ execute() : void
}
class FilterCommand {
# criteria : String
# value : String
+ execute() : void
}
class FindCommand {
+ execute() : void
}

"{abstract} \n Command" <|-- ClearCommand
"{abstract} \n Command" <|-- CloseCommand
"{abstract} \n Command" <|-- DefaultCommand
"{abstract} \n Command" <|-- FilterCommand
"{abstract} \n Command" <|-- FindCommand

@enduml
