@startuml
!include style.puml
skinparam ClassFontColor #000000
skinparam ClassBorderColor #000000

title Step 1

package EventList0 {
    class State1 as "Event \narduino course 30 Dec 2020 8pm []"
}

package EventList1 {
    class State4 as "Event \narduino course 30 Dec 2020 8pm [Harry Potter, John Sterling]"
}

package MemberList0 {
    class State2 as "Member \nJohn Sterling 12345678 123@gmail.com member"
    class State3 as "Member \nHarry Potter 88888888 qaz@gmail.com president"
}

EventList0 -->EventList1
MemberList0 -->EventList1

hide EventList1
hide MemberList0
@enduml