@startuml
!include style.puml
skinparam ClassFontColor #000000
skinparam ClassBorderColor #000000

title Step 4

package EventList0 {
    class State1 as "Event \narduino course 30 Dec 2020 18-00 []"
}

package MemberList0 {
    class State2 as "Member \nJohn Sterling 12345678 123@gmail.com member"
    class State3 as "Member \nHarry Potter 88888888 qaz@gmail.com president"
}

package EventList1 {
    class State4 as "Event \narduino course 30 Dec 2020 18-00 [Harry Potter, John Sterling]"
}

package EventList2 {
    class State5 as "Event \narduino course 30 Dec 2020 18-00 [Harry Potter, John Sterling]"
}

EventList0 -->EventList1
MemberList0 -->EventList1
EventList1 -->EventList2

class Pointer as "Current State" #FFFFF
Pointer -right-> EventList2

@enduml